<svg xmlns="http://www.w3.org/2000/svg" width="1024" height="1024" viewBox="0 0 1024 1024" fill="none">
  <defs>
    <linearGradient id="bg" x1="120" y1="90" x2="900" y2="940" gradientUnits="userSpaceOnUse">
      <stop offset="0" stop-color="#07183F"/>
      <stop offset="1" stop-color="#020814"/>
    </linearGradient>

    <filter id="greenGlow" x="-40%" y="-40%" width="180%" height="180%">
      <feGaussianBlur stdDeviation="16" result="blur"/>
      <feColorMatrix in="blur" type="matrix"
        values="0 0 0 0 0.06
                0 0 0 0 0.73
                0 0 0 0 0.51
                0 0 0 1 0" result="glow"/>
      <feMerge>
        <feMergeNode in="glow"/>
        <feMergeNode in="SourceGraphic"/>
      </feMerge>
    </filter>

    <style>
      .outer { stroke:#B8CFE8; stroke-width:14; fill:none; stroke-linecap:round; stroke-linejoin:round; }
      .node  { fill:#08142C; stroke:#B8CFE8; stroke-width:10; }
      .web   { stroke:#6B8FAD; stroke-width:7;  fill:none; stroke-linecap:round; stroke-linejoin:round; opacity:0.8; }
      .axis  { stroke:#4A6882; stroke-width:5;  fill:none; stroke-linecap:round; opacity:0.6; }
      .route { stroke:#10b981; stroke-width:22; fill:none; stroke-linecap:round; stroke-linejoin:round; }
      .pole  { stroke:#10b981; stroke-width:15; fill:none; stroke-linecap:round; }
      .flag  { fill:#10b981; stroke:#10b981; stroke-width:8; stroke-linejoin:round; stroke-linecap:round; }
      .endpoint { fill:#10b981; }
    </style>
  </defs>

  <rect x="28" y="28" width="968" height="968" rx="180" fill="url(#bg)"/>

  <!-- Outer hexagon -->
  <path class="outer" d="M 512 132 L 841 322 L 841 702 L 512 892 L 183 702 L 183 322 Z"/>
  <circle class="node" cx="512" cy="132" r="22"/>
  <circle class="node" cx="841" cy="322" r="22"/>
  <circle class="node" cx="841" cy="702" r="22"/>
  <circle class="node" cx="512" cy="892" r="22"/>
  <circle class="node" cx="183" cy="702" r="22"/>
  <circle class="node" cx="183" cy="322" r="22"/>

  <!-- Inner web rings — solid, half outer thickness -->
  <path class="web" d="M 512 277 L 716 395 L 716 630 L 512 747 L 308 630 L 308 395 Z"/>
  <path class="web" d="M 512 387 L 620 450 L 620 575 L 512 637 L 404 575 L 404 450 Z"/>

  <!-- Axis lines — solid, thin -->
  <path class="axis" d="M 512 512 L 512 132"/>
  <path class="axis" d="M 512 512 L 841 322"/>
  <path class="axis" d="M 512 512 L 841 702"/>
  <path class="axis" d="M 512 512 L 512 892"/>
  <path class="axis" d="M 512 512 L 183 702"/>
  <path class="axis" d="M 512 512 L 183 322"/>

  <!-- Route + flag (primary accent colour) -->
  <g filter="url(#greenGlow)">
    <!-- S-curve route -->
    <path class="route" d="
      M 615 868
      C 730 808, 758 706, 658 638
      C 545 562, 338 552, 368 444
      C 393 350, 558 318, 512 294
    "/>
    <circle class="endpoint" cx="512" cy="294" r="18"/>
    <!-- Flag pole -->
    <path class="pole" d="M 512 294 L 512 172"/>
    <!-- Filled flag -->
    <path class="flag" d="M 512 176 L 626 176 C 608 200, 608 226, 626 250 L 512 250 Z"/>
  </g>
</svg>
